<svg width="25" height="25" viewBox="0 0 25 25" fill="none" xmlns="http://www.w3.org/2000/svg">
<path d="M2.78467 6.1846H22.7847M10.7847 11.1846V16.1846M14.7847 11.1846V16.1846M4.78467 6.1846H20.7847L19.2047 20.4046C19.1505 20.894 18.9177 21.3462 18.5509 21.6746C18.1841 22.003 17.709 22.1846 17.2167 22.1846H8.35267C7.8603 22.1846 7.38523 22.003 7.01842 21.6746C6.6516 21.3462 6.41883 20.894 6.36467 20.4046L4.78467 6.1846ZM8.12967 3.3316C8.29142 2.98857 8.54737 2.6986 8.86767 2.49551C9.18797 2.29243 9.55941 2.1846 9.93867 2.1846H15.6307C16.0101 2.18441 16.3817 2.29215 16.7022 2.49524C17.0227 2.69834 17.2788 2.98841 17.4407 3.3316L18.7847 6.1846H6.78467L8.12967 3.3316V3.3316Z" stroke="#FF4545" stroke-width="2" stroke-linecap="round" stroke-linejoin="round"/>
</svg>
